<svg width="102" height="76" xmlns="http://www.w3.org/2000/svg"><path d="M101.13 35.727L70.532 1.729A3.402 3.402 0 0068.002.6H47.605a3.41 3.41 0 00-3.108 2.013 3.403 3.403 0 00.578 3.658l28.552 31.727-28.552 31.72a3.394 3.394 0 00-.578 3.658 3.406 3.406 0 003.108 2.02h20.399c.965 0 1.876-.415 2.529-1.122l30.598-33.998a3.402 3.402 0 000-4.55z" fill="#fff"/><path d="M56.93 35.727L26.332 1.729A3.402 3.402 0 0023.802.6H3.405A3.41 3.41 0 00.296 2.613 3.403 3.403 0 00.874 6.27l28.552 31.727L.874 69.718a3.394 3.394 0 00-.578 3.658 3.406 3.406 0 003.108 2.02h20.399c.965 0 1.876-.415 2.529-1.122L56.93 40.276a3.402 3.402 0 000-4.55z" fill="#fff"/></svg>