<svg width="20" height="23" xmlns="http://www.w3.org/2000/svg"><path d="M17.2 7.07a9.646 9.646 0 012.24 6.21A9.715 9.715 0 019.72 23 9.715 9.715 0 010 13.28C0 8.17 3.914 4.046 8.823 3.6V1.795h-.867a.897.897 0 010-1.795h3.53a.897.897 0 110 1.795h-.868V3.6c1.96.179 3.8.94 5.312 2.2l.902-.9a.897.897 0 111.269 1.268zM9.72 21.205c4.37 0 7.926-3.555 7.926-7.925 0-4.37-3.555-7.926-7.926-7.926-4.37 0-7.926 3.555-7.926 7.926 0 4.37 3.556 7.925 7.926 7.925zm4.16-12.084a.9.9 0 010 1.27l-3.524 3.523a.897.897 0 11-1.269-1.269l3.524-3.524a.897.897 0 011.269 0z" fill="#0c1b21"/></svg>