<svg width="1589" height="1160" xmlns="http://www.w3.org/2000/svg"><defs><filter id="a" width="200%" height="200%" x="-50%" y="-50%"><feGaussianBlur stdDeviation="30 30" result="FeGaussianBlur1018Out" in="SourceGraphic"/></filter><mask id="b"><path d="M174.17 306.174c19.375-71.325 78.744-124.68 151.725-136.356L1370.35 2.718c163.14-26.1 278.2 155.814 184.7 292.027l-460.7 671.235a188.015 188.015 0 01-127.36 79.56l-751.026 111.67C81.827 1177.15-28.659 1052.84 6.891 921.966z" fill="#fff"/></mask></defs><path d="M174.17 306.174c19.375-71.325 78.744-124.68 151.725-136.356L1370.35 2.718c163.14-26.1 278.2 155.814 184.7 292.027l-460.7 671.235a188.015 188.015 0 01-127.36 79.56l-751.026 111.67C81.827 1177.15-28.659 1052.84 6.891 921.966z" fill="#eff6ff"/><path d="M-60 1220V-60h1709v1280zM6.891 921.966c-35.55 130.874 74.936 255.184 209.073 235.244l751.026-111.67c51.66-7.68 97.8-36.5 127.36-79.56l460.7-671.235c93.5-136.213-21.56-318.127-184.7-292.027l-1044.455 167.1c-72.981 11.676-132.35 65.031-151.725 136.356z" fill="#2e5077" fill-opacity=".12" filter="url(#a)" mask="url(&quot;#b&quot;)"/></svg>