<svg width="1828" height="890" xmlns="http://www.w3.org/2000/svg"><defs><filter id="a" width="200%" height="200%" x="-50%" y="-50%"><feGaussianBlur stdDeviation="30 30" result="FeGaussianBlur1325Out" in="SourceGraphic"/></filter><mask id="b"><path d="M206.837 223.475a91 91 0 0173.633-55.595L1726.55.727c54.04-6.247 101.45 36 101.45 90.398v707.611c0 51.515-42.72 92.758-94.21 90.944L88.015 831.674c-63.438-2.236-105.154-67.096-80.877-125.747z" fill="#fff"/></mask></defs><path d="M206.837 223.475a91 91 0 0173.633-55.595L1726.55.727c54.04-6.247 101.45 36 101.45 90.398v707.611c0 51.515-42.72 92.758-94.21 90.944L88.015 831.674c-63.438-2.236-105.154-67.096-80.877-125.747z" fill="#eff6ff"/><path d="M-60 950V-60h1948V950zM7.138 705.927c-24.277 58.651 17.44 123.511 80.877 125.747L1733.79 889.68c51.49 1.814 94.21-39.429 94.21-90.944V91.125c0-54.398-47.41-96.645-101.45-90.398L280.47 167.88a91 91 0 00-73.633 55.595z" fill="#2e5077" fill-opacity=".12" filter="url(#a)" mask="url(&quot;#b&quot;)"/></svg>